<svg xmlns="http://www.w3.org/2000/svg" viewBox="0 0 1000 1000" fill="#b2b2b2"><path d="M916.7 375.2c0 49.9-40.6 90.4-90.7 90.4s-90.7-40.5-90.7-90.4c0-49.9 40.6-90.3 90.7-90.3s90.7 40.4 90.7 90.3zm-36.6 152.7l-109.8 93.6c1.2 7.5 2 15.1 2 22.8 0 79.7-64.8 144.3-144.8 144.3-69 0-126.6-48.1-141.2-112.4l-271.5-91.8c-21.5 16.2-48.1 26-77.1 26-70.6 0-127.8-57-127.8-127.3s57.2-127.3 127.8-127.3c60.7 0 111.3 42.1 124.4 98.6L524.3 543c25.5-25.8 60.8-42 99.8-42.8l39.3-118.9c-.1-2.4-.3-4.7-.3-7.1 0-89.9 73.2-162.8 163.4-162.8S990 284.3 990 374.2c0 71.2-46 131.6-109.9 153.7zm-662-88.4c-15.3-27.4-44.6-45.9-78.2-45.9-49.4 0-89.5 39.9-89.5 89.1 0 49.2 40.1 89.1 89.5 89.1 9.1 0 17.9-1.4 26.2-3.9l-42.5-14.4c-34.3-18.3-47.1-60.7-28.8-94.9 18.4-34.1 61-46.9 95.2-28.7l28.1 9.6zm481-64.9C699.1 444.4 756 501 826 501s127-56.6 127-126.4c0-69.9-56.9-126.5-127-126.5s-126.9 56.6-126.9 126.5zm2.5 282.1c0-53.2-43.3-96.3-96.6-96.3-7.5 0-14.7.9-21.7 2.5l54 18.3c34.2 18.3 47.1 60.8 28.8 94.9-18.3 34.1-61 47-95.2 28.7l-58.2-19.7c12.2 39.3 48.9 67.9 92.3 67.9 53.4-.1 96.6-43.2 96.6-96.3z"/></svg>